<?xml version="1.0" encoding="UTF-8"?>
<svg width="100px" height="100px" viewBox="0 0 100 100" version="1.1" xmlns="http://www.w3.org/2000/svg" xmlns:xlink="http://www.w3.org/1999/xlink">
    <!-- Generator: Sketch 50.2 (55047) - http://www.bohemiancoding.com/sketch -->
    <title>19. Bank</title>
    <desc>Created with Sketch.</desc>
    <defs></defs>
    <g id="19.-Bank" stroke="none" stroke-width="1" fill="none" fill-rule="evenodd" stroke-linecap="round" stroke-linejoin="round">
        <path d="M50.0000002,2 C50.0000002,2 1.42779378,27.7656332 2.00510582,27.7945661 L2.00510582,34.64 L97.9948945,34.64 L97.9948945,27.7944731 C98.5721884,27.7655989 50.0000002,2 50.0000002,2 L50.0000002,2 L50.0000002,2 Z" id="Layer-1" stroke="#222F3E" stroke-width="4"></path>
        <polygon id="Layer-2" stroke="#222F3E" stroke-width="4" points="30 44 30 80.6294886 12.72 80.6294886 12.72 44 10 44 10 35 32.16 35 32.16 44"></polygon>
        <polygon id="Layer-3" stroke="#222F3E" stroke-width="4" points="59 44 59 80.6294886 41.72 80.6294886 41.72 44 39 44 39 35 61.16 35 61.16 44"></polygon>
        <polygon id="Layer-4" stroke="#222F3E" stroke-width="4" points="88 44 88 80.6294886 70.72 80.6294886 70.72 44 68 44 68 35 90.16 35 90.16 44"></polygon>
        <polygon id="Layer-5" stroke="#222F3E" stroke-width="4" points="89.744 88.5432836 89.744 80.72 10.256 80.72 10.256 88.5432836 6.8 88.5432836 6.8 98 93.2 98 93.2 88.5432836"></polygon>
    </g>
</svg>