<?xml version="1.0" encoding="UTF-8"?>
<svg width="100px" height="100px" viewBox="0 0 100 100" version="1.1" xmlns="http://www.w3.org/2000/svg" xmlns:xlink="http://www.w3.org/1999/xlink">
    <!-- Generator: Sketch 50.2 (55047) - http://www.bohemiancoding.com/sketch -->
    <title>50. Briefcase</title>
    <desc>Created with Sketch.</desc>
    <defs></defs>
    <g id="50.-Briefcase" stroke="none" stroke-width="1" fill="none" fill-rule="evenodd" stroke-linecap="round" stroke-linejoin="round">
        <path d="M40.6766684,76.88 L4.98933839,76.88 L4.98933839,95.1186685 C4.98933839,96.710642 6.27649418,98 7.86428131,98 L92.3543955,98 C93.9363401,98 95.2293384,96.709984 95.2293384,95.1186685 L95.2293384,76.88 L59.5424834,76.88 C58.8928846,79.632032 56.4225096,81.68 53.4756486,81.68 L46.7430282,81.68 C43.7961664,81.68 41.3268924,79.6279956 40.6766684,76.88 L40.6766684,76.88 Z" id="Layer-1" stroke="#222F3E" stroke-width="4"></path>
        <path d="M2.10933839,26.2010033 C2.10933839,23.4390254 4.34102695,21.2 7.10200719,21.2 L93.1166696,21.2 C95.8740444,21.2 98.1093384,23.4347902 98.1093384,26.2010033 L98.1093384,69.2 L2.10933839,69.2 L2.10933839,26.2010033 Z" id="Layer-2" stroke="#222F3E" stroke-width="4"></path>
        <path d="M59.5424834,76.88 L98.1093384,76.88 L98.1093384,69.2 L2.10933839,69.2 L2.10933839,76.88 L40.6766684,76.88 C40.5672461,76.417556 40.5093384,75.9354019 40.5093384,75.44 L40.5093384,69.2 L59.7093384,69.2 L59.7093384,75.44 C59.7093384,75.9356185 59.6515965,76.4177414 59.5424834,76.88 L59.5424834,76.88 Z" id="Layer-3" stroke="#222F3E" stroke-width="4"></path>
        <path d="M40.5093384,69.2 L59.7093384,69.2 L59.7093384,75.44 C59.7093384,78.8862568 56.9174935,81.68 53.4756486,81.68 L46.7430282,81.68 C43.3002564,81.68 40.5093384,78.8792444 40.5093384,75.44 L40.5093384,69.2 Z" id="Layer-4" stroke="#222F3E" stroke-width="4"></path>
        <path d="M30.9093384,21.2 L30.9093384,11.5959861 C30.9093384,6.29626933 35.2025313,2 40.5002249,2 L59.7184519,2 C65.0153522,2 69.3093384,6.29508069 69.3093384,11.6043648 L69.3093384,21.2 L30.9093384,21.2 Z" id="Layer-5" stroke="#222F3E" stroke-width="4"></path>
    </g>
</svg>