<?xml version="1.0" encoding="UTF-8"?>
<svg width="100px" height="100px" viewBox="0 0 100 100" version="1.1" xmlns="http://www.w3.org/2000/svg" xmlns:xlink="http://www.w3.org/1999/xlink">
    <!-- Generator: Sketch 50.2 (55047) - http://www.bohemiancoding.com/sketch -->
    <title>56. Bulb</title>
    <desc>Created with Sketch.</desc>
    <defs></defs>
    <g id="56.-Bulb" stroke="none" stroke-width="1" fill="none" fill-rule="evenodd" stroke-linecap="round" stroke-linejoin="round">
        <path d="M50.4994502,97.9789771 C41.1708765,97.9789771 40.2040272,89.8648916 40.3046543,86.6365426 L60.699838,86.6365426 C60.5343264,89.7734431 59.8280239,97.9789771 50.4994502,97.9789771 L50.4994502,97.9789771 Z M40.3046543,76.9836024 C39.8782962,71.4606526 28.0135723,65.8527335 28.0135723,51.8982154 C28.0135723,37.0143009 38.8244126,29.122092 50.6068466,28.8235294 C62.3926822,29.1234053 73.202672,37.0143009 73.202672,51.8982154 C73.2035224,65.8527335 61.2531589,71.4006556 60.699838,76.983601 L40.3046543,76.9836024 L40.3046543,76.9836024 Z" id="Layer-1" stroke="#222F3E" stroke-width="4"></path>
        <path d="M50.040717,2 L50.040717,16.1176471" id="Layer-2" stroke="#222F3E" stroke-width="4"></path>
        <path d="M83.1792729,10.4705882 L73.4445583,20.4532722" id="Layer-3" stroke="#222F3E" stroke-width="4"></path>
        <path d="M17,10.4705882 L26.7347146,20.4532722" id="Layer-4" stroke="#222F3E" stroke-width="4"></path>
    </g>
</svg>