<?xml version="1.0" encoding="UTF-8"?>
<svg width="100px" height="100px" viewBox="0 0 100 100" version="1.1" xmlns="http://www.w3.org/2000/svg" xmlns:xlink="http://www.w3.org/1999/xlink">
    <!-- Generator: Sketch 50.2 (55047) - http://www.bohemiancoding.com/sketch -->
    <title>48. Cart</title>
    <desc>Created with Sketch.</desc>
    <defs></defs>
    <g id="48.-Cart" stroke="none" stroke-width="1" fill="none" fill-rule="evenodd" stroke-linecap="round" stroke-linejoin="round">
        <path d="M11.5049505,18.1584158 L94.3541461,18.1584158 C96.013908,18.1584158 97.2039281,19.4976601 97.0145258,21.1290681 L91.7605862,66.3836371 C91.3788869,69.6713863 88.377826,72.3366337 85.0645599,72.3366337 L17.880529,72.3366337 L11.5049505,18.1584158 Z" id="Layer-1" stroke="#222F3E" stroke-width="4"></path>
        <rect id="Layer-2" stroke="#222F3E" stroke-width="4" x="21.009901" y="8.01980198" width="19.009901" height="10.1386139" rx="1"></rect>
        <rect id="Layer-3" stroke="#222F3E" stroke-width="4" x="40.019802" y="2.95049505" width="47.5247525" height="15.2079208" rx="1"></rect>
        <polyline id="Layer-4" stroke="#222F3E" stroke-width="4" points="81.2637686 78.990099 18.6888923 78.990099 17.6214418 70.2430384"></polyline>
        <polyline id="Layer-5" stroke="#222F3E" stroke-width="4" points="11.5397585 19.4755569 10.1517906 8.77691832 2.03480799 2.89851485"></polyline>
        <path d="M21.009901,98 C26.2593402,98 30.5148515,93.7444887 30.5148515,88.4950495 C30.5148515,83.2456103 26.2593402,78.990099 21.009901,78.990099 C15.7604618,78.990099 11.5049505,83.2456103 11.5049505,88.4950495 C11.5049505,93.7444887 15.7604618,98 21.009901,98 Z" id="Layer-6" stroke="#222F3E" stroke-width="4"></path>
        <path d="M21.009901,91.3465347 C22.5847328,91.3465347 23.8613861,90.0698813 23.8613861,88.4950495 C23.8613861,86.9202177 22.5847328,85.6435644 21.009901,85.6435644 C19.4350692,85.6435644 18.1584158,86.9202177 18.1584158,88.4950495 C18.1584158,90.0698813 19.4350692,91.3465347 21.009901,91.3465347 Z" id="Layer-7" stroke="#222F3E" stroke-width="4"></path>
        <circle id="Layer-8" stroke="#222F3E" stroke-width="4" cx="80.8910891" cy="88.4950495" r="9.5049505"></circle>
        <path d="M80.8910891,91.3465347 C82.4659209,91.3465347 83.7425743,90.0698813 83.7425743,88.4950495 C83.7425743,86.9202177 82.4659209,85.6435644 80.8910891,85.6435644 C79.3162573,85.6435644 78.039604,86.9202177 78.039604,88.4950495 C78.039604,90.0698813 79.3162573,91.3465347 80.8910891,91.3465347 Z" id="Layer-9" stroke="#222F3E" stroke-width="4"></path>
    </g>
</svg>