<?xml version="1.0" encoding="UTF-8"?>
<svg width="100px" height="100px" viewBox="0 0 100 100" version="1.1" xmlns="http://www.w3.org/2000/svg" xmlns:xlink="http://www.w3.org/1999/xlink">
    <!-- Generator: Sketch 50.2 (55047) - http://www.bohemiancoding.com/sketch -->
    <title>11. Chart down</title>
    <desc>Created with Sketch.</desc>
    <defs></defs>
    <g id="11.-Chart-down" stroke="none" stroke-width="1" fill="none" fill-rule="evenodd" stroke-linecap="round" stroke-linejoin="round">
        <path d="M78.8,85.0094776 C78.8,83.347389 80.1501067,82 81.8,82 L95,82 C96.6568542,82 98,83.3366311 98,85.0094776 L98,98 L78.8,98 L78.8,85.0094776 Z" id="Layer-1" stroke="#222F3E" stroke-width="4" transform="translate(88.400000, 90.000000) scale(-1, 1) translate(-88.400000, -90.000000) "></path>
        <path d="M59.8,65.0074199 C59.8,63.3464677 61.1501067,62 62.8,62 L76,62 C77.6568542,62 79,63.3455393 79,65.0074199 L79,98 L59.8,98 L59.8,65.0074199 Z" id="Layer-2" stroke="#222F3E" stroke-width="4" transform="translate(69.400000, 80.000000) scale(-1, 1) translate(-69.400000, -80.000000) "></path>
        <path d="M40.8,44.9910051 C40.8,43.3391186 42.1501067,42 43.8,42 L57,42 C58.6568542,42 60,43.3427539 60,44.9910051 L60,98 L40.8,98 L40.8,44.9910051 Z" id="Layer-3" stroke="#222F3E" stroke-width="4" transform="translate(50.400000, 70.000000) scale(-1, 1) translate(-50.400000, -70.000000) "></path>
        <path d="M20.8,25.0026984 C20.8,23.3443539 22.1501067,22 23.8,22 L37,22 C38.6568542,22 40,23.3513777 40,25.0026984 L40,98 L20.8,98 L20.8,25.0026984 Z" id="Layer-4" stroke="#222F3E" stroke-width="4" transform="translate(30.400000, 60.000000) scale(-1, 1) translate(-30.400000, -60.000000) "></path>
        <path d="M1.8,5.00494794 C1.8,3.34536102 3.15010672,2 4.8,2 L18,2 C19.6568542,2 21,3.33876028 21,5.00494794 L21,98 L1.8,98 L1.8,5.00494794 Z" id="Layer-5" stroke="#222F3E" stroke-width="4" transform="translate(11.400000, 50.000000) scale(-1, 1) translate(-11.400000, -50.000000) "></path>
        <path d="M92.3122185,15.7771044 L97.2997997,20.7646856 C97.674623,21.1395089 97.9802066,21.0128809 97.9807906,20.480305 L97.9999994,2.96325727 C98.0005916,2.42317816 97.5693187,1.9994166 97.0367427,2.0000006 L79.5196947,2.01920902 C78.9796155,2.01980124 78.8597971,2.32468304 79.2353141,2.70019994 L84.2064526,7.67133854 L68.841042,23.0367492 C67.7196402,24.158151 67.7201168,25.9798435 68.8439965,27.1037233 L72.8798337,31.1395605 C74.0007202,32.260447 75.8245598,32.264763 76.9468078,31.142515 L92.3122185,15.7771044 L92.3122185,15.7771044 Z" id="Layer-6" stroke="#222F3E" stroke-width="4" transform="translate(83.000269, 16.991108) scale(1, -1) translate(-83.000269, -16.991108) "></path>
    </g>
</svg>