<?xml version="1.0" encoding="UTF-8"?>
<svg width="100px" height="100px" viewBox="0 0 100 100" version="1.1" xmlns="http://www.w3.org/2000/svg" xmlns:xlink="http://www.w3.org/1999/xlink">
    <!-- Generator: Sketch 50 (54983) - http://www.bohemiancoding.com/sketch -->
    <title>64. Coins</title>
    <desc>Created with Sketch.</desc>
    <defs></defs>
    <g id="64.-Coins" stroke="none" stroke-width="1" fill="none" fill-rule="evenodd" stroke-linecap="round" stroke-linejoin="round">
        <g transform="translate(-1.000000, 3.000000)" stroke="#222F3E" stroke-width="4">
            <path d="M98.0571642,82.3749282 C98.0571642,88.9418321 87.4016583,94.2653595 74.2574257,94.2653595 C61.1131931,94.2653595 50.4576873,88.9418321 50.4576873,82.3749282" id="Layer-5"></path>
            <g id="Group" transform="translate(50.500000, 0.000000)">
                <path d="M47.5,27 C47.5,33.5531799 36.8667628,38.8655818 23.75,38.8655818 C10.6332372,38.8655818 0,33.5531799 0,27" id="Layer-1"></path>
                <path d="M0,42 L0.0851641626,42 C1.11292463,48.0794965 11.3155237,52.8536084 23.75,52.8536084 C36.1844763,52.8536084 46.3870754,48.0794965 47.4148358,42 L47.5,42" id="Layer-2"></path>
                <path d="M0,55 L0.0851641626,55 C1.11292463,61.0794965 11.3155237,65.8536084 23.75,65.8536084 C36.1844763,65.8536084 46.3870754,61.0794965 47.4148358,55 L47.5,55" id="Layer-3"></path>
                <path d="M0,69 L0.0851641626,69 C1.11292463,75.0794965 11.3155237,79.8536084 23.75,79.8536084 C36.1844763,79.8536084 46.3870754,75.0794965 47.4148358,69 L47.5,69" id="Layer-4"></path>
                <ellipse id="Layer-6" cx="23.75" cy="12.2074893" rx="23.75" ry="12.2074893"></ellipse>
            </g>
            <path d="M98.0571642,13.649723 L98.0571642,82.2583904" id="Layer-7"></path>
            <path d="M3,55 L3.08534252,55 C4.11525537,61.0922284 14.3392212,65.8763385 26.7997385,65.8763385 C39.2602557,65.8763385 49.4842216,61.0922284 50.5141344,55 L50.5994769,55" id="Layer-8"></path>
            <path d="M3,69 L3.08534252,69 C4.11525537,75.0922284 14.3392212,79.8763385 26.7997385,79.8763385 C39.2602557,79.8763385 49.4842216,75.0922284 50.5141344,69 L50.5994769,69" id="Layer-9"></path>
            <path d="M50.5324117,82.3749282 C50.5324117,88.9418321 39.8769059,94.2653595 26.7326733,94.2653595 C13.5884407,94.2653595 2.9329348,88.9418321 2.9329348,82.3749282" id="Layer-10"></path>
            <ellipse id="Layer-11" cx="26.8020837" cy="40.2342603" rx="23.8020837" ry="12.2342603"></ellipse>
            <path d="M2.9329348,41.09319 L2.9329348,82.2583904" id="Layer-12"></path>
            <path d="M50.5324117,13.649723 L50.5324117,82.2583904" id="Layer-13"></path>
        </g>
    </g>
</svg>