<?xml version="1.0" encoding="UTF-8"?>
<svg width="100px" height="100px" viewBox="0 0 100 100" version="1.1" xmlns="http://www.w3.org/2000/svg" xmlns:xlink="http://www.w3.org/1999/xlink">
    <!-- Generator: Sketch 50 (54983) - http://www.bohemiancoding.com/sketch -->
    <title>43. Diagram</title>
    <desc>Created with Sketch.</desc>
    <defs></defs>
    <g id="43.-Diagram" stroke="none" stroke-width="1" fill="none" fill-rule="evenodd" stroke-linecap="round" stroke-linejoin="round">
        <g transform="translate(2.000000, 2.000000)" stroke="#222F3E" stroke-width="4">
            <path d="M47.6330083,96 C73.8802043,96 95.1577608,74.509668 95.1577608,48 C95.1577608,21.490332 73.8802043,0 47.6330083,0 C21.3858123,0 0.108255831,21.490332 0.108255831,48 C0.108255831,74.509668 21.3858123,96 47.6330083,96 L47.6330083,96 L47.6330083,96 L47.6330083,96 Z M47.6330083,67.2 C58.1318867,67.2 66.6429093,58.6038672 66.6429093,48 C66.6429093,37.3961328 58.1318867,28.8 47.6330083,28.8 C37.1341299,28.8 28.6231073,37.3961328 28.6231073,48 C28.6231073,58.6038672 37.1341299,67.2 47.6330083,67.2 L47.6330083,67.2 L47.6330083,67.2 L47.6330083,67.2 Z" id="Layer-1"></path>
            <path d="M81.2600558,81.8415029 C89.8025689,73.1631921 95.0814498,61.2042018 95.0814498,47.9999333 C95.0814498,21.5172243 73.8471478,0.0436476935 47.6367581,4.97379915e-14 L47.6330083,28.8000739 C58.0967862,28.8416182 66.5665983,37.4217693 66.5665983,47.9999333 C66.5665983,53.2513011 64.479235,58.0102637 61.0967961,61.4766106 L81.2600558,81.8415029 L81.2600558,81.8415029 Z" id="Layer-2"></path>
        </g>
    </g>
</svg>