<?xml version="1.0" encoding="UTF-8"?>
<svg width="100px" height="100px" viewBox="0 0 100 100" version="1.1" xmlns="http://www.w3.org/2000/svg" xmlns:xlink="http://www.w3.org/1999/xlink">
    <!-- Generator: Sketch 50 (54983) - http://www.bohemiancoding.com/sketch -->
    <title>45. Expand</title>
    <desc>Created with Sketch.</desc>
    <defs></defs>
    <g id="45.-Expand" stroke="none" stroke-width="1" fill="none" fill-rule="evenodd" stroke-linecap="round" stroke-linejoin="round">
        <g transform="translate(2.000000, 2.000000)" stroke="#222F3E" stroke-width="4">
            <path d="M96,0 L68.0491503,27.9508497" id="Layer-1"></path>
            <polyline id="Layer-2" points="76.3921569 0 96 0 96 19.6078431"></polyline>
            <path d="M28,0 L0.0491502813,27.9508497" id="Layer-3" transform="translate(14.000000, 14.000000) scale(-1, 1) translate(-14.000000, -14.000000) "></path>
            <polyline id="Layer-4" transform="translate(9.803922, 9.803922) scale(-1, 1) translate(-9.803922, -9.803922) " points="3.57047725e-13 0 19.6078431 0 19.6078431 19.6078431"></polyline>
            <path d="M28,68 L0.0491502813,95.9508497" id="Layer-5" transform="translate(14.000000, 82.000000) scale(-1, -1) translate(-14.000000, -82.000000) "></path>
            <polyline id="Layer-6" transform="translate(9.803922, 86.196078) scale(-1, -1) translate(-9.803922, -86.196078) " points="3.57047725e-13 76.3921569 19.6078431 76.3921569 19.6078431 96"></polyline>
            <path d="M96,68 L68.0491503,95.9508497" id="Layer-7" transform="translate(82.000000, 82.000000) scale(1, -1) translate(-82.000000, -82.000000) "></path>
            <polyline id="Layer-8" transform="translate(86.196078, 86.196078) scale(1, -1) translate(-86.196078, -86.196078) " points="76.3921569 76.3921569 96 76.3921569 96 96"></polyline>
        </g>
    </g>
</svg>