<?xml version="1.0" encoding="UTF-8"?>
<svg width="100px" height="100px" viewBox="0 0 100 100" version="1.1" xmlns="http://www.w3.org/2000/svg" xmlns:xlink="http://www.w3.org/1999/xlink">
    <!-- Generator: Sketch 50 (54983) - http://www.bohemiancoding.com/sketch -->
    <title>20. Eye (crossed out)</title>
    <desc>Created with Sketch.</desc>
    <defs></defs>
    <g id="20.-Eye-(crossed-out)" stroke="none" stroke-width="1" fill="none" fill-rule="evenodd" stroke-linecap="round" stroke-linejoin="round">
        <g transform="translate(1.000000, 2.000000)" stroke="#222F3E" stroke-width="4">
            <path d="M49,81.2 C82.8971875,81.2 97,47.3512347 97,47.3512347 C97,47.3512347 82.0140625,14 49,14 C15.9859375,14 1,47.3512347 1,47.3512347 C1,47.3512347 15.1028125,81.2 49,81.2 Z" id="Layer-1"></path>
            <circle id="Layer-2" cx="49" cy="47.6" r="21.12"></circle>
            <path d="M58.0803498,28.5262074 C54.013568,29.2280273 50.92,32.7727429 50.92,37.04 C50.92,41.8117402 54.7882598,45.68 59.56,45.68 C63.8272571,45.68 67.3719727,42.586432 68.0737926,38.5196502 C69.3856474,41.2703493 70.12,44.349416 70.12,47.6 C70.12,59.2642539 60.6642539,68.72 49,68.72 C37.3357461,68.72 27.88,59.2642539 27.88,47.6 C27.88,35.9357461 37.3357461,26.48 49,26.48 C52.250584,26.48 55.3296507,27.2143526 58.0803498,28.5262074 Z" id="Layer-3"></path>
            <path d="M97,1.42108547e-14 L1,96" id="Layer-4"></path>
        </g>
    </g>
</svg>