<?xml version="1.0" encoding="UTF-8"?>
<svg width="100px" height="100px" viewBox="0 0 100 100" version="1.1" xmlns="http://www.w3.org/2000/svg" xmlns:xlink="http://www.w3.org/1999/xlink">
    <!-- Generator: Sketch 50.2 (55047) - http://www.bohemiancoding.com/sketch -->
    <title>28. Goal</title>
    <desc>Created with Sketch.</desc>
    <defs></defs>
    <g id="28.-Goal" stroke="none" stroke-width="1" fill="none" fill-rule="evenodd" stroke-linecap="round" stroke-linejoin="round">
        <path d="M49.940366,89.8807319 C71.998821,89.8807319 89.8807319,71.998821 89.8807319,49.940366 C89.8807319,27.8819109 71.998821,10 49.940366,10 C27.8819109,10 10,27.8819109 10,49.940366 C10,71.998821 27.8819109,89.8807319 49.940366,89.8807319 L49.940366,89.8807319 Z" id="Layer-1" stroke="#222F3E" stroke-width="4"></path>
        <path d="M49.940366,75.3569625 C63.9775646,75.3569625 75.3569625,63.9775646 75.3569625,49.940366 C75.3569625,35.9031673 63.9775646,24.5237694 49.940366,24.5237694 C35.9031673,24.5237694 24.5237694,35.9031673 24.5237694,49.940366 C24.5237694,63.9775646 35.9031673,75.3569625 49.940366,75.3569625 L49.940366,75.3569625 Z" id="Layer-2" stroke="#222F3E" stroke-width="4"></path>
        <path d="M49.940366,60.8331931 C55.9563083,60.8331931 60.8331931,55.9563083 60.8331931,49.940366 C60.8331931,43.9244237 55.9563083,39.0475389 49.940366,39.0475389 C43.9244237,39.0475389 39.0475389,43.9244237 39.0475389,49.940366 C39.0475389,55.9563083 43.9244237,60.8331931 49.940366,60.8331931 L49.940366,60.8331931 Z" id="Layer-3" stroke="#222F3E" stroke-width="4"></path>
        <path d="M49.5,50.5 L8,92" id="Layer-4" stroke="#222F3E" stroke-width="4"></path>
        <polyline id="Layer-5" stroke="#222F3E" stroke-width="4" points="46 48 52 48 52 54"></polyline>
        <polyline id="Layer-6" stroke="#222F3E" stroke-width="4" points="2 92 8 92 8 98"></polyline>
    </g>
</svg>