<?xml version="1.0" encoding="UTF-8"?>
<svg width="100px" height="100px" viewBox="0 0 100 100" version="1.1" xmlns="http://www.w3.org/2000/svg" xmlns:xlink="http://www.w3.org/1999/xlink">
    <!-- Generator: Sketch 50.2 (55047) - http://www.bohemiancoding.com/sketch -->
    <title>12. Gold</title>
    <desc>Created with Sketch.</desc>
    <defs></defs>
    <g id="12.-Gold" stroke="none" stroke-width="1" fill="none" fill-rule="evenodd" stroke-linecap="round" stroke-linejoin="round">
        <path d="M16.0475036,79.9120165 C16.4392422,78.3037542 18.1026752,77 19.749125,77 L31.2869964,77 C32.9396069,77 34.5951623,78.3090148 34.9819478,79.9120165 L38.1535769,93.0565824 C38.4125564,94.1299023 37.7189125,95 36.6279306,95 L14.3669614,95 C13.2653908,95 12.5838609,94.1318226 12.8457666,93.0565824 L16.0475036,79.9120165 Z" id="Layer-1" stroke="#222F3E" stroke-width="4"></path>
        <path d="M41.0475036,79.9120165 C41.4392422,78.3037542 43.1026752,77 44.749125,77 L56.2869964,77 C57.9396069,77 59.5951623,78.3090148 59.9819478,79.9120165 L63.1535769,93.0565824 C63.4125564,94.1299023 62.7189125,95 61.6279306,95 L39.3669614,95 C38.2653908,95 37.5838609,94.1318226 37.8457666,93.0565824 L41.0475036,79.9120165 Z" id="Layer-2" stroke="#222F3E" stroke-width="4"></path>
        <path d="M66.0475036,79.9120165 C66.4392422,78.3037542 68.1026752,77 69.749125,77 L81.2869964,77 C82.9396069,77 84.5951623,78.3090148 84.9819478,79.9120165 L88.1535769,93.0565824 C88.4125564,94.1299023 87.7189125,95 86.6279306,95 L64.3669614,95 C63.2653908,95 62.5838609,94.1318226 62.8457666,93.0565824 L66.0475036,79.9120165 Z" id="Layer-3" stroke="#222F3E" stroke-width="4"></path>
        <path d="M28.0475036,61.9120165 C28.4392422,60.3037542 30.1026752,59 31.749125,59 L43.2869964,59 C44.9396069,59 46.5951623,60.3090148 46.9819478,61.9120165 L50.1535769,75.0565824 C50.4125564,76.1299023 49.7189125,77 48.6279306,77 L26.3669614,77 C25.2653908,77 24.5838609,76.1318226 24.8457666,75.0565824 L28.0475036,61.9120165 Z" id="Layer-4" stroke="#222F3E" stroke-width="4"></path>
        <path d="M53.0475036,61.9120165 C53.4392422,60.3037542 55.1026752,59 56.749125,59 L68.2869964,59 C69.9396069,59 71.5951623,60.3090148 71.9819478,61.9120165 L75.1535769,75.0565824 C75.4125564,76.1299023 74.7189125,77 73.6279306,77 L51.3669614,77 C50.2653908,77 49.5838609,76.1318226 49.8457666,75.0565824 L53.0475036,61.9120165 Z" id="Layer-5" stroke="#222F3E" stroke-width="4"></path>
        <path d="M41.0475036,43.9120165 C41.4392422,42.3037542 43.1026752,41 44.749125,41 L56.2869964,41 C57.9396069,41 59.5951623,42.3090148 59.9819478,43.9120165 L63.1535769,57.0565824 C63.4125564,58.1299023 62.7189125,59 61.6279306,59 L39.3669614,59 C38.2653908,59 37.5838609,58.1318226 37.8457666,57.0565824 L41.0475036,43.9120165 Z" id="Layer-6" stroke="#222F3E" stroke-width="4"></path>
        <path d="M50.2139366,5.52379353 L50.2139366,22.2851864 M80.5158556,16.5527901 L69.74184,29.3927619 M96.6391699,44.4791897 L80.1324203,47.389775 M3.7887033,44.4791897 L20.2954529,47.389775 M19.9120176,16.5527901 L30.6860333,29.3927619" id="Layer-7" stroke="#222F3E" stroke-width="4"></path>
    </g>
</svg>