<?xml version="1.0" encoding="UTF-8"?>
<svg width="100px" height="100px" viewBox="0 0 100 100" version="1.1" xmlns="http://www.w3.org/2000/svg" xmlns:xlink="http://www.w3.org/1999/xlink">
    <!-- Generator: Sketch 50.2 (55047) - http://www.bohemiancoding.com/sketch -->
    <title>46. Hourglass</title>
    <desc>Created with Sketch.</desc>
    <defs></defs>
    <g id="46.-Hourglass" stroke="none" stroke-width="1" fill="none" fill-rule="evenodd" stroke-linecap="round" stroke-linejoin="round">
        <path d="M49.7416296,88.9783418 C49.0086913,88.9827825 48.2514693,88.98866 47.4674666,88.996263 L47.4674666,88.9686653 C41.9277856,88.9549433 37.8064443,89.0152619 33.7758898,88.996263 C17.3686,88.9189236 35.3485886,61.3749375 39.8043626,56.8685788 C41.2298658,54.971837 45.2164839,52.4974914 45.2164839,50 C45.2164839,47.5025086 41.2298658,45.028163 39.8043626,43.1314212 C35.3485886,38.6250625 17.3686,11.0810764 33.7758898,11.003737 C37.8064443,10.9847381 41.9277856,11.0450567 47.4674666,11.0313347 L47.4674666,11.003737 C48.2514693,11.01134 49.0086913,11.0172175 49.7416296,11.0216582 C50.4745678,11.0172175 51.2317899,11.01134 52.0157925,11.003737 L52.0157925,11.0313347 C57.5554735,11.0450567 61.6768149,10.9847381 65.7073693,11.003737 C82.1146591,11.0810764 64.1346706,38.6250625 59.6788966,43.1314212 C58.2533934,45.028163 54.2667752,47.5025086 54.2667752,50 C54.2667752,52.4974914 58.2533934,54.971837 59.6788966,56.8685788 C64.1346706,61.3749375 82.1146591,88.9189236 65.7073693,88.996263 C61.6768149,89.0152619 57.5554735,88.9549433 52.0157925,88.9686653 L52.0157925,88.996263 C51.2317899,88.98866 50.4745678,88.9827825 49.7416296,88.9783418 Z" id="Layer-1" stroke="#222F3E" stroke-width="4"></path>
        <path d="M49.7416296,68.4775391 C56.9086682,68.4775391 63.6084447,69.985026 69.8409591,73 C73.4188119,81.0381197 74.4929017,88.9548505 65.7073693,88.996263 C61.6768149,89.0152619 57.5554735,88.9549433 52.0157925,88.9686653 C51.2317899,88.98866 50.4745678,88.9827825 49.7416296,88.9783418 C49.0086913,88.9827825 48.2514693,88.98866 47.4674666,88.996263 C41.9277856,88.9549433 37.8064443,89.0152619 33.7758898,88.996263 C24.9903574,88.9548505 26.0644473,81.0381197 29.6423001,73 C35.8748145,69.985026 42.574591,68.4775391 49.7416296,68.4775391 Z" id="Layer-2" stroke="#222F3E" stroke-width="4"></path>
        <rect id="Layer-3" stroke="#222F3E" stroke-width="4" x="23" y="2" width="54" height="9"></rect>
        <rect id="Layer-4" stroke="#222F3E" stroke-width="4" x="23" y="89" width="54" height="9"></rect>
    </g>
</svg>