<?xml version="1.0" encoding="UTF-8"?>
<svg width="100px" height="100px" viewBox="0 0 100 100" version="1.1" xmlns="http://www.w3.org/2000/svg" xmlns:xlink="http://www.w3.org/1999/xlink">
    <!-- Generator: Sketch 50 (54983) - http://www.bohemiancoding.com/sketch -->
    <title>65. Link</title>
    <desc>Created with Sketch.</desc>
    <defs></defs>
    <g id="65.-Link" stroke="none" stroke-width="1" fill="none" fill-rule="evenodd" stroke-linecap="round" stroke-linejoin="round">
        <g transform="translate(49.497475, 50.497475) scale(-1, 1) rotate(45.000000) translate(-49.497475, -50.497475) translate(-4.002525, 33.997475)" stroke="#222F3E" stroke-width="4">
            <path d="M48.1955994,13.4947678 L41.4482155,13.4947678 L41.4482155,19.2782398 L48.1955994,19.2782398 L48.1955994,26.9895357 C48.1955994,30.183659 45.6062508,32.7730076 42.4121275,32.7730076 L5.78347193,32.7730076 C2.58934858,32.7730076 0,30.183659 0,26.9895357 L0,5.78347193 C0,2.58934858 2.58934858,0 5.78347193,0 L42.4121275,0 C45.6062508,0 48.1955994,2.58934858 48.1955994,5.78347193 L48.1955994,13.4947678 Z" id="Layer-1"></path>
            <path d="M57.8347193,19.2782398 L64.5821032,19.2782398 L64.5821032,13.4947678 L57.8347193,13.4947678 L57.8347193,5.78347193 C57.8347193,2.58934858 60.4240679,0 63.6181912,0 L100.246847,0 C103.44097,0 106.030319,2.58934858 106.030319,5.78347193 L106.030319,26.9895357 C106.030319,30.183659 103.44097,32.7730076 100.246847,32.7730076 L63.6181912,32.7730076 C60.4240679,32.7730076 57.8347193,30.183659 57.8347193,26.9895357 L57.8347193,19.2782398 Z" id="Layer-2"></path>
            <rect id="Layer-3" x="41.4482155" y="13.4947678" width="23.1338877" height="5.78347193"></rect>
        </g>
    </g>
</svg>