<?xml version="1.0" encoding="UTF-8"?>
<svg width="100px" height="100px" viewBox="0 0 100 100" version="1.1" xmlns="http://www.w3.org/2000/svg" xmlns:xlink="http://www.w3.org/1999/xlink">
    <!-- Generator: Sketch 50 (54983) - http://www.bohemiancoding.com/sketch -->
    <title>50. Magic wand</title>
    <desc>Created with Sketch.</desc>
    <defs></defs>
    <g id="50.-Magic-wand" stroke="none" stroke-width="1" fill="none" fill-rule="evenodd" stroke-linecap="round" stroke-linejoin="round">
        <g transform="translate(-1.000000, 2.000000)" stroke="#222F3E" stroke-width="4">
            <g id="Group" transform="translate(0.000000, 28.000000)">
                <rect id="Layer-1" transform="translate(34.500000, 35.000000) rotate(45.000000) translate(-34.500000, -35.000000) " x="28" y="-7" width="13" height="84" rx="6.5"></rect>
                <path d="M42.4868512,19.4868512 L50,27" id="Layer-2"></path>
            </g>
            <path d="M58,0 L58,20" id="Layer-3"></path>
            <path d="M79.2132034,8.78679656 L79.2132034,28.7867966" id="Layer-4" transform="translate(79.713203, 18.786797) rotate(45.000000) translate(-79.713203, -18.786797) "></path>
            <path d="M88,30 L88,50" id="Layer-5" transform="translate(88.500000, 40.000000) rotate(90.000000) translate(-88.500000, -40.000000) "></path>
            <path d="M79.2132034,51.2132034 L79.2132034,71.2132034" id="Layer-6" transform="translate(79.713203, 61.213203) rotate(135.000000) translate(-79.713203, -61.213203) "></path>
            <path d="M36.7867966,8.78679656 L36.7867966,28.7867966" id="Layer-7" transform="translate(37.286797, 18.786797) rotate(315.000000) translate(-37.286797, -18.786797) "></path>
        </g>
    </g>
</svg>