<?xml version="1.0" encoding="UTF-8"?>
<svg width="100px" height="100px" viewBox="0 0 100 100" version="1.1" xmlns="http://www.w3.org/2000/svg" xmlns:xlink="http://www.w3.org/1999/xlink">
    <!-- Generator: Sketch 50.2 (55047) - http://www.bohemiancoding.com/sketch -->
    <title>4. Missed call</title>
    <desc>Created with Sketch.</desc>
    <defs></defs>
    <g id="4.-Missed-call" stroke="none" stroke-width="1" fill="none" fill-rule="evenodd" stroke-linecap="round" stroke-linejoin="round">
        <path d="M28.2987988,49.5946503 C25.9771173,47.249752 30.3015385,39.3611238 30.3015385,39.3611238 C31.6274667,36.3295817 30.9758342,31.8367236 28.8313928,29.3087341 L19.2283701,17.988145 C17.0905028,15.4679056 13.474406,15.326691 11.1623968,17.6618203 L4.54710504,24.3432649 C0.477569598,28.4534957 2.01434952,36.3219577 4.12423845,41.6780844 C4.12423845,41.6780844 6.79800648,50.6593418 27.6500812,71.7199372 C48.5021558,92.7805326 57.3944899,95.4810383 57.3944899,95.4810383 C62.6975856,97.6120261 70.488142,99.1641739 74.5576774,95.0539431 L81.1729692,88.3724984 C83.4849784,86.0373691 83.345162,82.3851113 80.8498754,80.2258654 L69.6413714,70.5268125 C67.1384115,68.3609266 62.6900371,67.7027778 59.6885102,69.0419653 C59.6885102,69.0419653 51.5364806,73.064709 49.2147991,70.7198107 L38.9275522,60.3296915 L28.2987988,49.5946503 L28.2987988,49.5946503 Z" id="Layer-1" stroke="#222F3E" stroke-width="4"></path>
        <circle id="Layer-2" stroke="#222F3E" stroke-width="4" cx="73" cy="27" r="25"></circle>
        <path d="M73.5,13.5 L73.5,40.5" id="Layer-3" stroke="#222F3E" stroke-width="4" transform="translate(73.500000, 27.000000) rotate(-315.000000) translate(-73.500000, -27.000000) "></path>
        <path d="M87,27 L60,27" id="Layer-4" stroke="#222F3E" stroke-width="4" transform="translate(73.500000, 27.000000) rotate(-315.000000) translate(-73.500000, -27.000000) "></path>
    </g>
</svg>