<?xml version="1.0" encoding="UTF-8"?>
<svg width="100px" height="100px" viewBox="0 0 100 100" version="1.1" xmlns="http://www.w3.org/2000/svg" xmlns:xlink="http://www.w3.org/1999/xlink">
    <!-- Generator: Sketch 50.2 (55047) - http://www.bohemiancoding.com/sketch -->
    <title>36. Office chair</title>
    <desc>Created with Sketch.</desc>
    <defs></defs>
    <g id="36.-Office-chair" stroke="none" stroke-width="1" fill="none" fill-rule="evenodd" stroke-linecap="round" stroke-linejoin="round">
        <rect id="Layer-1" stroke="#222F3E" stroke-width="4" x="19.0909091" y="61.3454545" width="61.0909091" height="8.72727273"></rect>
        <path d="M6,50.4301499 C6,46.8186269 8.93785553,43.8909091 12.5454545,43.8909091 L12.5454545,43.8909091 C16.1604093,43.8909091 19.0909091,46.8180861 19.0909091,50.4301499 L19.0909091,70.0727273 L12.5454545,70.0727273 C8.93049982,70.0727273 6,67.1455503 6,63.5334865 L6,50.4301499 Z" id="Layer-2" stroke="#222F3E" stroke-width="4"></path>
        <path d="M80.1818182,50.4301499 C80.1818182,46.8186269 83.1196737,43.8909091 86.7272727,43.8909091 L86.7272727,43.8909091 C90.3422275,43.8909091 93.2727273,46.8180861 93.2727273,50.4301499 L93.2727273,63.5334865 C93.2727273,67.1450094 90.3348717,70.0727273 86.7272727,70.0727273 L80.1818182,70.0727273 L80.1818182,50.4301499 Z" id="Layer-3" stroke="#222F3E" stroke-width="4"></path>
        <path d="M49.6363636,70.0727273 L49.6363636,87.0548375" id="Layer-4" stroke="#222F3E" stroke-width="4"></path>
        <path d="M25.9794994,87.950108 C27.5633537,87.1501774 29.7614987,86.6545455 32.1895602,86.6545455 L67.083167,86.6545455 C69.4286385,86.6545455 71.5581985,87.1162238 73.1273762,87.8676805" id="Layer-5" stroke="#222F3E" stroke-width="4"></path>
        <circle id="Layer-6" stroke="#222F3E" stroke-width="4" cx="23.4545455" cy="93" r="5"></circle>
        <circle id="Layer-7" stroke="#222F3E" stroke-width="4" cx="75.8181818" cy="93" r="5"></circle>
        <circle id="Layer-8" stroke="#222F3E" stroke-width="4" cx="49.6363636" cy="93" r="5"></circle>
        <path d="M19.0909091,22.008929 C19.0909091,10.9583026 28.039477,2 39.0943576,2 L60.1783697,2 C71.2259692,2 80.1818182,10.9488691 80.1818182,22.008929 L80.1818182,61.3454545 L19.0909091,61.3454545 L19.0909091,22.008929 Z" id="Layer-9" stroke="#222F3E" stroke-width="4"></path>
    </g>
</svg>