<?xml version="1.0" encoding="UTF-8"?>
<svg width="100px" height="100px" viewBox="0 0 100 100" version="1.1" xmlns="http://www.w3.org/2000/svg" xmlns:xlink="http://www.w3.org/1999/xlink">
    <!-- Generator: Sketch 50.2 (55047) - http://www.bohemiancoding.com/sketch -->
    <title>13. Oil</title>
    <desc>Created with Sketch.</desc>
    <defs></defs>
    <g id="13.-Oil" stroke="none" stroke-width="1" fill="none" fill-rule="evenodd" stroke-linecap="round" stroke-linejoin="round">
        <rect id="Layer-1" stroke="#222F3E" stroke-width="4" x="14.5039802" y="9.04587156" width="70.4587156" height="88.0733945"></rect>
        <rect id="Layer-2" stroke="#222F3E" stroke-width="4" x="60" y="2" width="16.1540014" height="7.04587156"></rect>
        <path d="M50.5370007,34 C51.5458698,34 52.3766098,34.7524925 52.4841328,35.7196575 C52.5837622,36.2969121 53.3121053,40.2575 55.1475088,44.0278457 C56.8705774,47.5674293 59.8570876,52.0602796 60.6164563,53.1861083 C62.1598191,55.2189958 63.0740015,57.7437572 63.0740015,60.4791903 C63.0740015,67.2041198 57.5486983,72.6557523 50.7328914,72.6557523 C50.6674744,72.6557523 50.6021762,72.6552501 50.5370007,72.6542494 C50.4718252,72.6552501 50.4065271,72.6557523 50.3411101,72.6557523 C43.5253032,72.6557523 38,67.2041198 38,60.4791903 C38,57.7437572 38.9141824,55.2189958 40.4575452,53.1861083 C41.2169138,52.0602796 44.2034241,47.5674293 45.9264927,44.0278457 C47.7618962,40.2575 48.4902392,36.2969121 48.5898687,35.7196575 C48.6973917,34.7524925 49.5281316,34 50.5370007,34 L50.5370007,34 Z" id="Layer-3" stroke="#222F3E" stroke-width="4"></path>
        <path d="M10.1003104,9.04587156 L89.3663655,9.04587156" id="Layer-4" stroke="#222F3E" stroke-width="4"></path>
        <path d="M10.1003104,97.1192661 L89.3663655,97.1192661" id="Layer-5" stroke="#222F3E" stroke-width="4"></path>
        <path d="M15,18.1192661 L85,18.1192661" id="Layer-6" stroke="#222F3E" stroke-width="4"></path>
        <path d="M15,87.8807339 L84,87.8807339" id="Layer-7" stroke="#222F3E" stroke-width="4"></path>
    </g>
</svg>