<?xml version="1.0" encoding="UTF-8"?>
<svg width="100px" height="100px" viewBox="0 0 100 100" version="1.1" xmlns="http://www.w3.org/2000/svg" xmlns:xlink="http://www.w3.org/1999/xlink">
    <!-- Generator: Sketch 50 (54983) - http://www.bohemiancoding.com/sketch -->
    <title>46. Quotes</title>
    <desc>Created with Sketch.</desc>
    <defs></defs>
    <g id="46.-Quotes" stroke="none" stroke-width="1" fill="none" fill-rule="evenodd" stroke-linecap="round" stroke-linejoin="round">
        <g transform="translate(2.000000, 14.000000)" stroke="#222F3E" stroke-width="4">
            <path d="M11.8766845,71.8701029 C10.9267649,71.8701029 7.53956384,66.4867249 7.53956384,65.516381 C33.6266495,45.5308053 29.5109024,41.3986946 29.6634833,40.7829907 C29.8160642,40.1672868 21.2007682,43.12694 16.0752168,41.7523669 C4.51211273,38.6373542 -2.26170096,27.0475232 0.970681298,15.9161951 C3.59079632,6.89678762 12.2082147,0.595647454 21.9267422,0.595647454 C23.9064063,0.595647454 25.8831548,0.858584844 27.802564,1.37603814 C35.4277206,3.42807265 41.16068,9.52335436 43.94601,18.5352761 C46.4601931,26.6657493 46.3970227,36.5048478 43.7769076,45.5308053 C35.9408454,66.2601609 12.8266042,71.8701029 11.8766845,71.8701029 Z" id="Layer-1"></path>
            <path d="M61.3024271,71.8701029 C60.3525075,71.8701029 56.9653064,66.4867249 56.9653064,65.516381 C83.0523921,45.5308053 78.936645,41.3986946 79.0892259,40.7829907 C79.2418068,40.1672868 70.6265108,43.12694 65.5009594,41.7523669 C53.9378553,38.6373542 47.1640416,27.0475232 50.3964239,15.9161951 C53.0165389,6.89678762 61.6339573,0.595647454 71.3524848,0.595647454 C73.3321488,0.595647454 75.3088973,0.858584844 77.2283065,1.37603814 C84.8534632,3.42807265 90.5864226,9.52335436 93.3717526,18.5352761 C95.8859357,26.6657493 95.8227652,36.5048478 93.2026502,45.5308053 C85.366588,66.2601609 62.2523467,71.8701029 61.3024271,71.8701029 Z" id="Layer-2"></path>
        </g>
    </g>
</svg>