<?xml version="1.0" encoding="UTF-8"?>
<svg width="100px" height="100px" viewBox="0 0 100 100" version="1.1" xmlns="http://www.w3.org/2000/svg" xmlns:xlink="http://www.w3.org/1999/xlink">
    <!-- Generator: Sketch 50 (54983) - http://www.bohemiancoding.com/sketch -->
    <title>26. Settings</title>
    <desc>Created with Sketch.</desc>
    <defs></defs>
    <g id="26.-Settings" stroke="none" stroke-width="1" fill="none" fill-rule="evenodd" stroke-linecap="round" stroke-linejoin="round">
        <g transform="translate(2.000000, 2.000000)" stroke="#222F3E" stroke-width="4">
            <path d="M56.5106952,10.5464071 C60.8135865,11.5200327 64.8423906,13.2161538 68.4628809,15.5005439 L76.8618891,8.97963811 L87.0203619,19.1381109 L80.4994561,27.5371191 C82.7838462,31.1576094 84.4799673,35.1864135 85.4535929,39.4893048 L96,40.816875 L96,55.183125 L85.4535929,56.5106952 C84.4799673,60.8135865 82.7838462,64.8423906 80.4994561,68.4628809 L87.0203619,76.8618891 L76.8618891,87.0203619 L68.4628809,80.4994561 C64.8423906,82.7838462 60.8135865,84.4799673 56.5106952,85.4535929 L55.183125,96 L40.816875,96 L39.4893048,85.4535929 C35.1864135,84.4799673 31.1576094,82.7838462 27.5371191,80.4994561 L19.1381109,87.0203619 L8.97963811,76.8618891 L15.5005439,68.4628809 C13.2161538,64.8423906 11.5200327,60.8135865 10.5464071,56.5106952 L0,55.183125 L0,40.816875 L10.5464071,39.4893048 C11.5200327,35.1864135 13.2161538,31.1576094 15.5005439,27.5371191 L8.97963811,19.1381109 L19.1381109,8.97963811 L27.5371191,15.5005439 C31.1576094,13.2161538 35.1864135,11.5200327 39.4893048,10.5464071 L40.816875,0 L55.183125,0 L56.5106952,10.5464071 Z" id="Layer-1"></path>
            <circle id="Layer-2" cx="48" cy="48" r="14.4"></circle>
        </g>
    </g>
</svg>