<?xml version="1.0" encoding="UTF-8"?>
<svg width="100px" height="100px" viewBox="0 0 100 100" version="1.1" xmlns="http://www.w3.org/2000/svg" xmlns:xlink="http://www.w3.org/1999/xlink">
    <!-- Generator: Sketch 50 (54983) - http://www.bohemiancoding.com/sketch -->
    <title>27. Sound level 100%</title>
    <desc>Created with Sketch.</desc>
    <defs></defs>
    <g id="27.-Sound-level-100%" stroke="none" stroke-width="1" fill="none" fill-rule="evenodd" stroke-linecap="round" stroke-linejoin="round">
        <g transform="translate(2.000000, 13.000000)" stroke="#222F3E" stroke-width="4">
            <path d="M14.6938776,22.5306122 L40.3148433,0.922459264 C42.3951836,-0.811009183 44.0816327,-0.0311544031 44.0816327,2.6727448 L44.0816327,71.5256583 C44.0816327,74.2257828 42.3960675,75.0101488 40.3148433,73.2759438 L14.6938776,51.9183673 L2.93820977,51.9183673 C1.31548132,51.9183673 0,50.5985451 0,48.9795731 L0,25.4694065 C0,23.8463553 1.31691501,22.5306122 2.93820977,22.5306122 L14.6938776,22.5306122 Z" id="Layer-1"></path>
            <path d="M69.5510204,73.6035649 C84.8232661,68.6015772 95.854109,54.2337581 95.854109,37.2895475 C95.854109,20.3499209 84.8292338,5.98529194 69.5634144,0.979591837" id="Layer-2"></path>
            <path d="M63.6734694,60.2090411 C73.7987081,57.5889793 81.2768183,48.3913297 81.2768183,37.4470738 C81.2768183,26.5149964 73.8153416,17.3256402 63.7072606,14.6938776" id="Layer-3"></path>
            <path d="M56.8163265,47.0204082 L56.8163265,47.0204082 C57.5110906,47.0204082 58.1889616,46.9480804 58.8428206,46.8105436 C63.2805701,45.87708 66.6122449,41.9398621 66.6122449,37.2244898 C66.6122449,32.4395808 63.1815825,28.455946 58.6457782,27.599106 C58.0531005,27.4871457 57.4415539,27.4285714 56.8163265,27.4285714" id="Layer-4"></path>
        </g>
    </g>
</svg>