<?xml version="1.0" encoding="UTF-8"?>
<svg width="100px" height="100px" viewBox="0 0 100 100" version="1.1" xmlns="http://www.w3.org/2000/svg" xmlns:xlink="http://www.w3.org/1999/xlink">
    <!-- Generator: Sketch 50 (54983) - http://www.bohemiancoding.com/sketch -->
    <title>29. Sound level 50%</title>
    <desc>Created with Sketch.</desc>
    <defs></defs>
    <g id="29.-Sound-level-50%" stroke="none" stroke-width="1" fill="none" fill-rule="evenodd" stroke-linecap="round" stroke-linejoin="round">
        <g transform="translate(2.000000, 12.000000)" stroke="#222F3E" stroke-width="4">
            <path d="M15,23 L41.1547359,0.941677165 C43.2784166,-0.827905208 45,-0.0318034532 45,2.72842698 L45,73.0157762 C45,75.7721532 43.2793189,76.5728602 41.1547359,74.802526 L15,53 L2.99942248,53 C1.34288718,53 0,51.6526814 0,49.9999809 L0,26.0000191 C0,24.3431543 1.34435073,23 2.99942248,23 L15,23 Z" id="Layer-1"></path>
            <path d="M58,48 L58,48 C58.7092383,48 59.4012316,47.9261654 60.0687127,47.7857633 C64.5989154,46.8328525 68,42.8136092 68,38 C68,33.1154054 64.4978654,29.0487782 59.8675653,28.1740873 C59.2625401,28.0597945 58.6382529,28 58,28" id="Layer-2"></path>
        </g>
    </g>
</svg>