<?xml version="1.0" encoding="UTF-8"?>
<svg width="100px" height="100px" viewBox="0 0 100 100" version="1.1" xmlns="http://www.w3.org/2000/svg" xmlns:xlink="http://www.w3.org/1999/xlink">
    <!-- Generator: Sketch 50.2 (55047) - http://www.bohemiancoding.com/sketch -->
    <title>35. Stamp</title>
    <desc>Created with Sketch.</desc>
    <defs></defs>
    <g id="35.-Stamp" stroke="none" stroke-width="1" fill="none" fill-rule="evenodd" stroke-linecap="round" stroke-linejoin="round">
        <path d="M50.159975,87.314233 C50.1599917,87.3143919 50.16,87.3144714 50.16,87.3144714 L91.2772623,87.3144714 C92.9611907,87.3144714 94.32,85.9608254 94.32,84.2910185 L94.32,76.7824423 C94.32,71.2033926 89.7803685,66.6736842 84.1804492,66.6736842 L72.0216102,66.6736842 C59.2843302,66.6736842 61.1440204,58.2481427 61.1440204,51.1063638 C61.1440204,46.1719277 63.9093466,42.4932874 66.7358144,38.7017633 C70.1625877,34.8085952 72.24,29.706105 72.24,24.1199829 C72.24,11.9406739 62.3647715,2.06036737 50.16,2.00025589 C37.9552285,2.06011148 28.08,11.940418 28.08,24.119727 C28.08,29.7058492 30.1574123,34.8083393 33.5841856,38.7015075 C36.4106534,42.4930315 39.1759796,46.1716718 39.1759796,51.1061079 C39.1759796,58.2478868 41.0356698,66.6734283 28.2983898,66.6734283 L16.1395508,66.6734283 C10.5396315,66.6734283 6,71.2031367 6,76.7821864 L6,84.2907626 C6,85.9605695 7.35880928,87.3142155 9.04273769,87.3142155 L50.1599732,87.3142155 L50.159975,87.314233 Z" id="Layer-1" stroke="#222F3E" stroke-width="4"></path>
        <path d="M13.5742393,67 L86.7447766,67 C91.1030884,68.1331399 94.32,72.0859946 94.32,76.7824423 L94.32,84.2910185 C94.32,85.9608254 92.9611907,87.3144714 91.2772623,87.3144714 L50.16,87.3144714 C50.16,87.3144714 50.1599917,87.3143919 50.159975,87.314233 L50.1599732,87.3142155 L9.04273769,87.3142155 C7.35880928,87.3142155 6,85.9605695 6,84.2907626 L6,76.7821864 C6,72.0860921 9.21642739,68.133479 13.5742393,67 Z" id="Layer-2" stroke="#222F3E" stroke-width="4"></path>
        <path d="M11.0181818,87.8947368 L87.2945455,87.8947368 L87.2945455,92.9473684 C87.2945455,95.7378598 85.0324398,98 82.2455646,98 L16.0671627,98 C13.2786875,98 11.0181818,95.7321817 11.0181818,92.9473684 L11.0181818,87.8947368 Z" id="Layer-3" stroke="#222F3E" stroke-width="4"></path>
    </g>
</svg>