<?xml version="1.0" encoding="UTF-8"?>
<svg width="100px" height="100px" viewBox="0 0 100 100" version="1.1" xmlns="http://www.w3.org/2000/svg" xmlns:xlink="http://www.w3.org/1999/xlink">
    <!-- Generator: Sketch 50 (54983) - http://www.bohemiancoding.com/sketch -->
    <title>34. Time</title>
    <desc>Created with Sketch.</desc>
    <defs></defs>
    <g id="34.-Time" stroke="none" stroke-width="1" fill="none" fill-rule="evenodd" stroke-linecap="round" stroke-linejoin="round">
        <g transform="translate(9.000000, 2.000000)" stroke="#222F3E" stroke-width="4">
            <path d="M40.9450549,59.9009901 C43.6761334,59.9009901 45.8901099,57.684578 45.8901099,54.950495 C45.8901099,52.2164121 43.6761334,50 40.9450549,50 C38.2139765,50 36,52.2164121 36,54.950495 C36,57.684578 38.2139765,59.9009901 40.9450549,59.9009901 L40.9450549,59.9009901 Z" id="Layer-1"></path>
            <path d="M52.0047728,33.5864667 L52.0047728,53.3884469" id="Layer-2" transform="translate(52.004773, 43.487457) rotate(45.000000) translate(-52.004773, -43.487457) "></path>
            <path d="M77.9215931,17.6696274 L71.6275657,23.9705789" id="Layer-3"></path>
            <path d="M81.7679431,20.1199975 L75.4739157,13.8190459" id="Layer-4"></path>
            <path d="M82.138604,55 C82.138604,32.3563253 63.8024505,14 41.183659,14 C18.5648674,14 0.228713898,32.3563253 0.228713898,55 C0.228713898,77.6436747 18.5648674,96 41.183659,96 C63.8024505,96 82.138604,77.6436747 82.138604,55 Z" id="Layer-5"></path>
            <path d="M40.9450002,13.9052809 C44.7806179,13.9052809 47.8900003,10.7924777 47.8900003,6.95264044 C47.8900003,3.11280315 44.7806179,0 40.9450002,0 C37.1093825,0 34,3.11280315 34,6.95264044 C34,10.7924777 37.1093825,13.9052809 40.9450002,13.9052809 L40.9450002,13.9052809 Z" id="Layer-6"></path>
        </g>
    </g>
</svg>