<?xml version="1.0" encoding="UTF-8"?>
<svg width="100px" height="100px" viewBox="0 0 100 100" version="1.1" xmlns="http://www.w3.org/2000/svg" xmlns:xlink="http://www.w3.org/1999/xlink">
    <!-- Generator: Sketch 50.2 (55047) - http://www.bohemiancoding.com/sketch -->
    <title>9. Weigher</title>
    <desc>Created with Sketch.</desc>
    <defs></defs>
    <g id="9.-Weigher" stroke="none" stroke-width="1" fill="none" fill-rule="evenodd" stroke-linecap="round" stroke-linejoin="round">
        <path d="M42,55 C42,66.045695 33.045695,75 22,75 C10.954305,75 2,66.045695 2,55 L42,55 L42,55 Z" id="Layer-1" stroke="#222F3E" stroke-width="4"></path>
        <path d="M98,55 C98,66.045695 89.045695,75 78,75 C66.954305,75 58,66.045695 58,55 L98,55 L98,55 Z" id="Layer-2" stroke="#222F3E" stroke-width="4"></path>
        <path d="M50,1.91626707 L50,97.5" id="Layer-3" stroke="#222F3E" stroke-width="4"></path>
        <path d="M79,8 L21,8" id="Layer-4" stroke="#222F3E" stroke-width="4"></path>
        <path d="M64,98 L36,98" id="Layer-5" stroke="#222F3E" stroke-width="4"></path>
        <path d="M23.5011567,8.75289181 L42,55 L2,55 L20.5302866,8.67428341 C21.0159232,8.88387298 21.5513472,9 22.1138942,9 C22.6016272,9 23.0689717,8.91270687 23.5011567,8.75289181 Z" id="Layer-6" stroke="#222F3E" stroke-width="4"></path>
        <path d="M79.5011567,8.75289181 L98,55 L58,55 L76.5302866,8.67428341 C77.0159232,8.88387298 77.5513472,9 78.1138942,9 C78.6016272,9 79.0689717,8.91270687 79.5011567,8.75289181 Z" id="Layer-7" stroke="#222F3E" stroke-width="4"></path>
    </g>
</svg>